:version 1.10
:name ASF
:units
  mass 1
  length 1
  angle deg
:documentation
  ASF file generated by Kaydara
:root
  axis xyz
  order  tx ty tz rx ry rz
  position 0 0 0
  orientation 0 0 0
:bonedata
  begin
    id 1
    name RightUpLegDummy
    direction -0.718183 -0.695806 0.00816078
    length 4.904
    axis 0 0 0 xyz
  end
  begin
    id 2
    name RightUpLeg
    direction 3.53373e-006 -0.995788 0.0916898
    length 17.4976
    axis -3.49089 -0.000906625 0.000286804 xyz
    dof rx ry rz
  end
  begin
    id 3
    name RightLeg
    direction 0.00371092 -0.995096 -0.0988419
    length 16.5821
    axis 3.68512 0.0193738 -0.131023 xyz
    dof rx ry rz
  end
  begin
    id 4
    name RightFoot
    direction 0.00079151 -0.46099 0.887405
    length 3.77069
    axis 4.81691e-005 -0.120479 -0.188788 xyz
    dof rx ry rz
  end
  begin
    id 5
    name RightToes
    direction 0 0 0
    length 0
    axis 0 0 0 xyz
    dof rx ry rz
  end
  begin
    id 6
    name SpineDummy
    direction 8.3039e-015 1 4.57515e-016
    length 4.6813
    axis 0 0 0 xyz
  end
  begin
    id 7
    name Spine
    direction -3.15643e-008 0.999988 0.00495137
    length 10.1015
    axis -0.001389 0.000121418 2.40972e-006 xyz
    dof rx ry rz
  end
  begin
    id 8
    name Spine1
    direction 0 0 0
    length 0
    axis -0.001389 0.000121451 1.30017e-006 xyz
    dof rx ry rz
  end
  begin
    id 9
    name HEadDummy
    direction -1.99912e-008 0.999999 0.00127422
    length 3.43865
    axis -0.001389 0.000121451 1.30017e-006 xyz
  end
  begin
    id 10
    name HEad
    direction 0 0 0
    length 0
    axis 0 0 0 xyz
    dof rx ry rz
  end
  begin
    id 11
    name LeftShoulder1Dummy
    direction 0.998891 -0.0402509 -0.0244456
    length 3.5433
    axis -0.001389 0.000121451 1.30017e-006 xyz
  end
  begin
    id 12
    name LeftShoulder1
    direction 0.99951 -0.000327763 0.0313091
    length 4.05031
    axis -0.001389 0.000121451 1.30017e-006 xyz
    dof rx ry rz
  end
  begin
    id 13
    name LeftArm
    direction 0.998561 -0.00100056 -0.0536182
    length 10.3537
    axis -23.1894 0.134784 0.967509 xyz
    dof rx ry rz
  end
  begin
    id 14
    name LeftForeArm
    direction 0.998903 0.00866432 0.046012
    length 8.70632
    axis -9.91835 -0.06569 -0.177794 xyz
    dof rx ry rz
  end
  begin
    id 15
    name LeftHand
    direction 0 0 0
    length 0
    axis 0 0 0 xyz
    dof rx ry rz
  end
  begin
    id 16
    name RightShoulderDummy
    direction -0.998891 -0.0402509 -0.0244414
    length 3.5433
    axis -0.001389 0.000121451 1.30017e-006 xyz
  end
  begin
    id 17
    name RightShoulder
    direction -0.99951 -0.000327807 0.0313133
    length 4.05031
    axis 0.215806 0.000203643 -0.0068026 xyz
    dof rx ry rz
  end
  begin
    id 18
    name RightArm
    direction -0.998573 -0.000999564 -0.053403
    length 10.3947
    axis -23.2009 -0.134239 -0.964101 xyz
    dof rx ry rz
  end
  begin
    id 19
    name RightForeArm
    direction -0.998898 0.00868028 0.0461306
    length 8.68355
    axis -9.92322 0.0658061 0.178868 xyz
    dof rx ry rz
  end
  begin
    id 20
    name RightHand
    direction 0 0 0
    length 0
    axis 0 0 0 xyz
    dof rx ry rz
  end
  begin
    id 21
    name LeftUpLegDummy
    direction 0.718183 -0.695806 0.00816078
    length 4.904
    axis 0 0 0 xyz
  end
  begin
    id 22
    name LeftUpLeg
    direction -6.81752e-006 -0.995793 0.0916337
    length 17.4976
    axis -3.48766 0.00143442 -0.000524262 xyz
    dof rx ry rz
  end
  begin
    id 23
    name LeftLeg
    direction -0.00601358 -0.995091 -0.0987824
    length 16.5821
    axis 3.68178 -0.00654042 -0.000285133 xyz
    dof rx ry rz
  end
  begin
    id 24
    name LeftFoot
    direction -0.00417578 -0.460984 0.887399
    length 3.77069
    axis 1.87233e-006 4.66016e-005 -8.6538e-006 xyz
    dof rx ry rz
  end
  begin
    id 25
    name LeftToes
    direction 0 0 0
    length 0
    axis 0 0 0 xyz
    dof rx ry rz
  end
:hierarchy
  begin
    root RightUpLegDummy SpineDummy LeftUpLegDummy
    RightUpLegDummy RightUpLeg
    RightUpLeg RightLeg
    RightLeg RightFoot
    RightFoot RightToes
    SpineDummy Spine
    Spine Spine1
    Spine1 HEadDummy LeftShoulder1Dummy RightShoulderDummy
    HEadDummy HEad
    LeftShoulder1Dummy LeftShoulder1
    LeftShoulder1 LeftArm
    LeftArm LeftForeArm
    LeftForeArm LeftHand
    RightShoulderDummy RightShoulder
    RightShoulder RightArm
    RightArm RightForeArm
    RightForeArm RightHand
    LeftUpLegDummy LeftUpLeg
    LeftUpLeg LeftLeg
    LeftLeg LeftFoot
    LeftFoot LeftToes
  end

:SAMPLES-PER-SECOND 30
:FULLY-SPECIFIED
:DEGREES
504
root  15.095 40.6384 9.88945 156.41 86.7912 157.999
RightUpLeg  2.75642 -11.6789 -12.3192
RightLeg  5.47578 -11.266 2.71298
RightFoot  -0.874235 -0.40465 4.35035
RightToes  0.000481921 0.542163 -0.142578
Spine  -2.63338 -1.43934 -3.99708
Spine1  13.8092 -3.19279 6.07501
HEad  13.9008 -1.01281 0.295961
LeftShoulder1  9.22814 -12.9141 -49.0707
LeftArm  -10.7782 13.7772 -25.2765
LeftForeArm  175.583 -53.3589 -166.922
LeftHand  -0.25398 0.0180481 5.50724
RightShoulder  4.23289 7.05987 34.1181
RightArm  0.454745 -25.1783 37.8049
RightForeArm  156.622 45.9329 168.611
RightHand  -1.04873 2.57927 -15.4602
LeftUpLeg  2.3964 7.57075 8.75197
LeftLeg  0.869936 11.8721 -3.36563
LeftFoot  2.32608 0.714057 -6.05472
LeftToes  1.06245e-005 4.65869e-005 -8.65517e-006
505
root  15.0651 40.6393 9.87958 156.862 86.7118 158.441
RightUpLeg  2.73065 -11.7047 -12.3452
RightLeg  5.45131 -11.3279 2.73378
RightFoot  -0.813145 -0.404429 4.32502
RightToes  0.000481921 0.542163 -0.142578
Spine  -2.48366 -1.41049 -3.94702
Spine1  13.7639 -3.16996 6.07755
HEad  13.9267 -1.16909 0.190902
LeftShoulder1  9.2063 -12.8636 -49.1055
LeftArm  -11.1238 13.9226 -25.4896
LeftForeArm  175.465 -53.5177 -166.84
LeftHand  -0.25398 0.0180481 5.50724
RightShoulder  4.25052 7.07396 34.2303
RightArm  0.330984 -25.0779 37.6344
RightForeArm  156.118 45.9074 168.588
RightHand  -1.00354 2.2297 -15.452
LeftUpLeg  2.33825 7.55971 8.72059
LeftLeg  0.832863 11.819 -3.3868
LeftFoot  2.36272 0.711201 -6.02512
LeftToes  1.06245e-005 4.65869e-005 -8.65517e-006
506
root  15.0402 40.6402 9.8747 157.552 86.6075 159.132
RightUpLeg  2.7535 -11.7226 -12.3627
RightLeg  5.39076 -11.4147 2.75999
RightFoot  -0.762314 -0.404727 4.30402
RightToes  0.000481921 0.542163 -0.142578
Spine  -2.32361 -1.37415 -3.96918
Spine1  13.6994 -3.16674 6.1887
HEad  14.0238 -1.16387 0.0448154
LeftShoulder1  9.20607 -12.8339 -49.1935
LeftArm  -11.2573 13.9757 -25.5972
LeftForeArm  175.446 -53.6049 -166.798
LeftHand  -0.25398 0.0180481 5.50724
RightShoulder  4.23021 7.04748 34.1394
RightArm  0.232953 -25.042 37.7351
RightForeArm  156.213 45.8836 168.602
RightHand  -0.972416 2.09379 -15.2441
LeftUpLeg  2.28344 7.54795 8.70129
LeftLeg  0.815542 11.7325 -3.39501
LeftFoot  2.39186 0.708766 -5.99389
LeftToes  1.06245e-005 4.65869e-005 -8.65517e-006
507
root  15.022 40.6411 9.87361 158.367 86.4557 159.924
RightUpLeg  2.75439 -11.722 -12.3669
RightLeg  5.35672 -11.5768 2.75296
RightFoot  -0.740149 -0.408484 4.33471
RightToes  0.000481921 0.542163 -0.142578
Spine  -2.2386 -1.36132 -4.02672
Spine1  13.6642 -3.18176 6.2932
HEad  14.1435 -0.982196 -0.0826147
LeftShoulder1  9.20745 -12.822 -49.2367
LeftArm  -11.1186 13.98 -25.6096
LeftForeArm  175.663 -53.5533 -166.838
LeftHand  -0.25398 0.0180481 5.50724
RightShoulder  4.19755 6.99406 34.0334
RightArm  0.205726 -24.9742 37.8607
RightForeArm  156.625 45.8918 168.626
RightHand  -0.988525 2.27135 -15.1488
LeftUpLeg  2.19745 7.51542 8.66505
LeftLeg  0.796581 11.6144 -3.38636
LeftFoot  2.44436 0.70711 -5.96098
LeftToes  1.06245e-005 4.65869e-005 -8.65517e-006
508
root  15.0067 40.6429 9.87388 158.999 86.2662 160.489
RightUpLeg  2.70422 -11.7135 -12.3733
RightLeg  5.346 -11.7915 2.71843
RightFoot  -0.7316 -0.414676 4.40432
RightToes  0.000481921 0.542163 -0.142578
Spine  -2.24244 -1.38719 -4.06956
Spine1  13.6846 -3.20091 6.2801
HEad  14.2344 -0.770731 -0.0900301
LeftShoulder1  9.1677 -12.7875 -49.1276
LeftArm  -10.8172 13.9552 -25.6586
LeftForeArm  175.948 -53.4526 -166.906
LeftHand  -0.25398 0.0180481 5.50724
RightShoulder  4.19064 6.9768 34.0332
RightArm  0.272077 -24.7912 37.8057
RightForeArm  156.916 45.9368 168.628
RightHand  -1.03141 2.53895 -15.2845
LeftUpLeg  2.08274 7.44695 8.58629
LeftLeg  0.724923 11.5155 -3.36827
LeftFoot  2.53614 0.707849 -5.94204
LeftToes  1.06245e-005 4.65869e-005 -8.65517e-006
509
root  14.9901 40.6454 9.87572 159.564 86.0595 160.989
RightUpLeg  2.6684 -11.7059 -12.3844
RightLeg  5.32058 -12.0111 2.68651
RightFoot  -0.71586 -0.419247 4.45299
RightToes  0.000481921 0.542163 -0.142578
Spine  -2.23468 -1.42292 -4.11842
Spine1  13.722 -3.22733 6.25244
HEad  14.2802 -0.673689 -0.0419537
LeftShoulder1  9.1161 -12.7431 -48.9843
LeftArm  -10.5458 13.9009 -25.7443
LeftForeArm  176.062 -53.4151 -166.932
LeftHand  -0.25398 0.0180481 5.50724
RightShoulder  4.19737 7.00897 33.9757
RightArm  0.306684 -24.56 37.6712
RightForeArm  157.441 46.0036 168.638
RightHand  -1.03896 2.60271 -15.2764
LeftUpLeg  1.98141 7.37162 8.50105
LeftLeg  0.622367 11.4208 -3.35657
LeftFoot  2.63985 0.711902 -5.93492
LeftToes  1.06245e-005 4.65869e-005 -8.65517e-006
510
root  14.9729 40.6475 9.88047 160.325 85.8399 161.742
RightUpLeg  2.70875 -11.6954 -12.39
RightLeg  5.28335 -12.2313 2.66398
RightFoot  -0.6959 -0.420901 4.46339
RightToes  0.000481921 0.542163 -0.142578
Spine  -2.13352 -1.43295 -4.17826
Spine1  13.7207 -3.24976 6.29502
HEad  14.3009 -0.727399 -0.028516
LeftShoulder1  9.11267 -12.7438 -48.9635
LeftArm  -10.3336 13.8153 -25.7471
LeftForeArm  176.02 -53.4696 -166.904
LeftHand  -0.25398 0.0180481 5.50724
RightShoulder  4.18191 7.02543 33.7682
RightArm  0.205153 -24.3707 37.5636
RightForeArm  158.403 46.1052 168.663
RightHand  -0.993804 2.44393 -14.9095
LeftUpLeg  1.92341 7.32826 8.45798
LeftLeg  0.555005 11.267 -3.35278
LeftFoot  2.72784 0.713901 -5.91877
LeftToes  1.06245e-005 4.65869e-005 -8.65517e-006
511
root  14.9572 40.649 9.8863 161.186 85.6085 162.625
RightUpLeg  2.78119 -11.6831 -12.391
RightLeg  5.25774 -12.4686 2.64276
RightFoot  -0.683715 -0.42272 4.47927
RightToes  0.000481921 0.542163 -0.142578
Spine  -1.99797 -1.42318 -4.17849
Spine1  13.6884 -3.23721 6.28371
HEad  14.2994 -0.89558 -0.00147648
LeftShoulder1  9.14539 -12.786 -49.0125
LeftArm  -10.0966 13.6945 -25.6695
LeftForeArm  176.002 -53.5867 -166.849
LeftHand  -0.25398 0.0180481 5.50724
RightShoulder  4.14829 6.98895 33.5872
RightArm  0.06965 -24.1422 37.3718
RightForeArm  158.95 46.2936 168.63
RightHand  -0.94447 2.21039 -14.6015
LeftUpLeg  1.87467 7.30349 8.43822
LeftLeg  0.530808 11.0696 -3.34918
LeftFoot  2.80601 0.714258 -5.89225
LeftToes  1.06245e-005 4.65869e-005 -8.65517e-006
512
root  14.9426 40.6505 9.88909 161.824 85.3942 163.245
RightUpLeg  2.80359 -11.6835 -12.4022
RightLeg  5.23967 -12.6904 2.6303
RightFoot  -0.676497 -0.426371 4.52416
RightToes  0.000481921 0.542163 -0.142578
Spine  -1.94458 -1.40758 -4.04741
Spine1  13.6955 -3.16218 6.07466
HEad  14.2448 -1.14381 0.0978914
LeftShoulder1  9.16567 -12.8265 -48.9994
LeftArm  -9.86166 13.538 -25.6377
LeftForeArm  176.016 -53.7299 -166.783
LeftHand  -0.25398 0.0180481 5.50724
RightShoulder  4.12698 6.94208 33.5607
RightArm  0.00964379 -23.687 37.0056
RightForeArm  158.43 46.6594 168.461
RightHand  -0.909588 1.85705 -14.7246
LeftUpLeg  1.79228 7.25993 8.39247
LeftLeg  0.499657 10.9185 -3.33622
LeftFoot  2.88509 0.714326 -5.87479
LeftToes  1.06245e-005 4.65869e-005 -8.65517e-006
513
root  14.928 40.6518 9.88795 162.126 85.2415 163.497
RightUpLeg  2.7747 -11.6995 -12.4242
RightLeg  5.22324 -12.8382 2.63174
RightFoot  -0.663545 -0.429462 4.56091
RightToes  0.000481921 0.542163 -0.142578
Spine  -1.99364 -1.36026 -3.77563
Spine1  13.7886 -3.00274 5.68197
HEad  14.1416 -1.4484 0.22409
LeftShoulder1  9.17995 -12.883 -48.9066
LeftArm  -9.72495 13.3808 -25.702
LeftForeArm  175.891 -53.8586 -166.714
LeftHand  -0.25398 0.0180481 5.50724
RightShoulder  4.12029 6.92159 33.574
RightArm  -0.078825 -22.8774 36.5776
RightForeArm  157.476 47.3907 168.122
RightHand  -0.862365 1.32509 -15.0206
LeftUpLeg  1.70422 7.20929 8.33074
LeftLeg  0.443973 10.8401 -3.32654
LeftFoot  2.95311 0.714079 -5.86171
LeftToes  1.06245e-005 4.65869e-005 -8.65517e-006
514
root  14.9126 40.6526 9.88729 162.259 85.1633 163.613
RightUpLeg  2.75044 -11.7091 -12.4345
RightLeg  5.22517 -12.9126 2.62729
RightFoot  -0.64149 -0.429746 4.55459
RightToes  0.000481921 0.542163 -0.142578
Spine  -2.05135 -1.25978 -3.42075
Spine1  13.908 -2.76619 5.21417
HEad  14.078 -1.76576 0.352086
LeftShoulder1  9.21365 -12.988 -48.7736
LeftArm  -9.65999 13.2878 -25.8042
LeftForeArm  175.597 -53.932 -166.657
LeftHand  -0.25398 0.0180481 5.50724
RightShoulder  4.10909 6.91074 33.5079
RightArm  -0.293434 -21.6193 36.2125
RightForeArm  156.648 48.7968 167.51
RightHand  -0.821444 0.91699 -15.1975
LeftUpLeg  1.66301 7.19507 8.30422
LeftLeg  0.40435 10.7828 -3.3368
LeftFoot  2.99874 0.712099 -5.8276
LeftToes  1.06245e-005 4.65869e-005 -8.65517e-006
515
root  14.8954 40.6532 9.88892 162.421 85.1339 163.805
RightUpLeg  2.74864 -11.6952 -12.4166
RightLeg  5.24234 -12.9638 2.60636
RightFoot  -0.612832 -0.428546 4.52578
RightToes  0.000481921 0.542163 -0.142578
Spine  -2.00622 -1.13861 -3.1008
Spine1  13.8991 -2.52145 4.80848
HEad  14.1525 -2.05849 0.528353
LeftShoulder1  9.24341 -13.0855 -48.6432
LeftArm  -9.56065 13.2778 -25.8727
LeftForeArm  175.332 -53.9532 -166.626
LeftHand  -0.25398 0.0180481 5.50724
RightShoulder  4.09817 6.91258 33.397
RightArm  -0.506758 -19.794 35.8883
RightForeArm  155.119 51.1457 166.399
RightHand  -0.833473 0.911012 -15.4294
LeftUpLeg  1.65414 7.21708 8.32035
LeftLeg  0.413857 10.7306 -3.35281
LeftFoot  3.03093 0.70933 -5.78381
LeftToes  1.06245e-005 4.65869e-005 -8.65517e-006
516
root  14.875 40.6537 9.89172 162.647 85.1336 164.066
RightUpLeg  2.75205 -11.672 -12.3835
RightLeg  5.23522 -12.9998 2.59606
RightFoot  -0.579787 -0.428255 4.51158
RightToes  0.000481921 0.542163 -0.142578
Spine  -1.82994 -1.0211 -2.89973
Spine1  13.661 -2.32489 4.5779
HEad  14.3739 -2.37061 0.713654
LeftShoulder1  9.25779 -13.1183 -48.6228
LeftArm  -9.40385 13.283 -25.8344
LeftForeArm  175.242 -53.9878 -166.603
LeftHand  -0.25398 0.0180481 5.50724
RightShoulder  4.11593 6.98228 33.3056
RightArm  -0.629343 -17.3848 35.5345
RightForeArm  151.886 54.4822 164.534
RightHand  -0.85403 0.925258 -15.773
LeftUpLeg  1.63181 7.23662 8.34495
LeftLeg  0.458773 10.7194 -3.34657
LeftFoot  3.05479 0.708754 -5.77366
LeftToes  1.06245e-005 4.65869e-005 -8.65517e-006
